<?xml version="1.0" encoding="UTF-8"?>
<svg id="Layer_2" data-name="Layer 2" xmlns="http://www.w3.org/2000/svg" viewBox="0 0 248.87 89.05">
  <defs>
    <style>
      .cls-1 {
        fill: #f79256;
      }

      .cls-1, .cls-2, .cls-3, .cls-4 {
        stroke-width: 0px;
      }

      .cls-2 {
        fill: #7dcfb6;
      }

      .cls-3 {
        fill: #fbd1a2;
      }

      .cls-4 {
        fill: #e5e5f7;
      }
    </style>
  </defs>
  <g id="Layer_3" data-name="Layer 3">
    <g>
      <g>
        <path class="cls-4" d="M57.47,32.52c-.98,1.53-2.37,2.75-4.18,3.67-1.81.92-3.91,1.38-6.31,1.38-3.68,0-6.64-.85-8.88-2.55-2.24-1.7-3.36-4.09-3.36-7.18h7.2c.13,1.43.62,2.52,1.46,3.27.85.75,2.04,1.12,3.58,1.12s2.75-.4,3.65-1.19c.9-.79,1.34-1.83,1.34-3.1,0-1.02-.31-1.84-.94-2.48-.62-.64-1.39-1.13-2.3-1.48-.91-.35-2.2-.75-3.86-1.19-2.14-.54-3.89-1.1-5.23-1.67-1.34-.57-2.5-1.47-3.46-2.69-.96-1.22-1.44-2.88-1.44-4.98s.5-3.76,1.51-5.27c1.01-1.51,2.41-2.67,4.2-3.48s3.82-1.22,6.1-1.22c3.49,0,6.29.79,8.4,2.36,2.11,1.57,3.26,3.97,3.46,7.18h-7.39c-.13-1.27-.61-2.28-1.44-3.03-.83-.75-1.9-1.12-3.22-1.12-1.38,0-2.49.34-3.34,1.02-.85.68-1.27,1.72-1.27,3.12,0,1.05.31,1.9.94,2.55.62.65,1.4,1.15,2.33,1.5.93.35,2.21.73,3.84,1.14,2.14.54,3.89,1.1,5.23,1.67,1.34.57,2.49,1.47,3.43,2.69.94,1.22,1.42,2.88,1.42,4.98,0,1.78-.49,3.43-1.46,4.96Z"/>
        <path class="cls-4" d="M69.74,10.82l6.77,18.79,7.15-18.79h7.06l-16.61,38.91h-7.06l5.52-12.97-10.42-25.94h7.58Z"/>
        <path class="cls-4" d="M110.15,11.63c1.47.79,2.66,1.89,3.55,3.29v-4.1h6.72v26.41h-6.72v-4.43c-.93,1.49-2.12,2.67-3.58,3.53-1.46.86-3.13,1.29-5.02,1.29-2.27,0-4.34-.58-6.22-1.74-1.87-1.16-3.36-2.77-4.46-4.84-1.1-2.07-1.66-4.42-1.66-7.06s.55-4.98,1.66-7.03c1.1-2.05,2.59-3.65,4.46-4.79,1.87-1.14,3.94-1.72,6.22-1.72,1.89,0,3.57.4,5.04,1.19ZM103.26,17.16c-1.07.6-1.94,1.49-2.62,2.65-.67,1.16-1.01,2.55-1.01,4.17s.34,3.03,1.01,4.22c.67,1.19,1.54,2.09,2.62,2.69,1.07.6,2.2.91,3.38.91s2.36-.3,3.43-.91c1.07-.6,1.94-1.49,2.62-2.67.67-1.18,1.01-2.57,1.01-4.2s-.34-3.02-1.01-4.2c-.67-1.18-1.54-2.07-2.62-2.67-1.07-.6-2.22-.91-3.43-.91s-2.31.3-3.38.91Z"/>
        <path class="cls-4" d="M134.77,10.82h15.6v26.41h-6.72v-20.93h-8.88v20.93h-6.72v-20.93h-2.88v-5.48h2.88v-1.48c0-3.18.85-5.5,2.54-6.96,1.7-1.46,4.37-2.19,8.02-2.19v5.63c-1.41,0-2.4.27-2.98.81-.58.54-.86,1.45-.86,2.72v1.48ZM144.11,7.01c-.78-.79-1.18-1.76-1.18-2.91s.39-2.11,1.18-2.91c.78-.79,1.75-1.19,2.9-1.19s2.12.4,2.9,1.19c.78.79,1.18,1.76,1.18,2.91s-.39,2.11-1.18,2.91c-.79.79-1.75,1.19-2.9,1.19s-2.12-.4-2.9-1.19Z"/>
        <path class="cls-4" d="M173.08,11.63c1.47.79,2.66,1.89,3.55,3.29v-4.1h6.72v39h-6.72v-17.02c-.93,1.49-2.12,2.67-3.58,3.53-1.46.86-3.13,1.29-5.02,1.29-2.27,0-4.34-.58-6.22-1.74-1.87-1.16-3.36-2.77-4.46-4.84-1.1-2.07-1.66-4.42-1.66-7.06s.55-4.98,1.66-7.03c1.1-2.05,2.59-3.65,4.46-4.79,1.87-1.14,3.94-1.72,6.22-1.72,1.89,0,3.57.4,5.04,1.19ZM166.19,17.16c-1.07.6-1.94,1.49-2.62,2.65-.67,1.16-1.01,2.55-1.01,4.17s.34,3.03,1.01,4.22c.67,1.19,1.54,2.09,2.62,2.69,1.07.6,2.2.91,3.38.91s2.36-.3,3.43-.91c1.07-.6,1.94-1.49,2.62-2.67.67-1.18,1.01-2.57,1.01-4.2s-.34-3.02-1.01-4.2c-.67-1.18-1.54-2.07-2.62-2.67-1.07-.6-2.22-.91-3.43-.91s-2.31.3-3.38.91Z"/>
        <path class="cls-4" d="M206.05,11.63c1.47.79,2.66,1.89,3.55,3.29v-4.1h6.72v26.41h-6.72v-4.43c-.93,1.49-2.12,2.67-3.58,3.53-1.46.86-3.13,1.29-5.02,1.29-2.27,0-4.34-.58-6.22-1.74-1.87-1.16-3.36-2.77-4.46-4.84-1.1-2.07-1.66-4.42-1.66-7.06s.55-4.98,1.66-7.03c1.1-2.05,2.59-3.65,4.46-4.79,1.87-1.14,3.94-1.72,6.22-1.72,1.89,0,3.57.4,5.04,1.19ZM199.17,17.16c-1.07.6-1.94,1.49-2.62,2.65-.67,1.16-1.01,2.55-1.01,4.17s.34,3.03,1.01,4.22c.67,1.19,1.54,2.09,2.62,2.69,1.07.6,2.2.91,3.38.91s2.36-.3,3.43-.91c1.07-.6,1.94-1.49,2.62-2.67.67-1.18,1.01-2.57,1.01-4.2s-.34-3.02-1.01-4.2c-.67-1.18-1.54-2.07-2.62-2.67-1.07-.6-2.22-.91-3.43-.91s-2.31.3-3.38.91Z"/>
        <path class="cls-4" d="M243.85,11.75c1.55.87,2.78,2.16,3.67,3.86.9,1.7,1.34,3.73,1.34,6.08v15.54h-6.72v-14.59c0-2.07-.53-3.65-1.58-4.74-1.06-1.1-2.5-1.65-4.32-1.65s-3.27.55-4.34,1.65-1.61,2.68-1.61,4.74v14.59h-6.77V1.96h6.77v12.83c.83-1.4,1.96-2.47,3.38-3.22,1.42-.75,3.05-1.12,4.87-1.12,1.98,0,3.75.44,5.3,1.31Z"/>
      </g>
      <g>
        <path class="cls-4" d="M38,88.66l-8.02-13.34h-2.21v13.34h-6.77v-33.5h12.34c2.59,0,4.8.46,6.62,1.37s3.19,2.13,4.1,3.65c.91,1.52,1.37,3.21,1.37,5.06,0,2.11-.64,4.08-1.92,5.9-1.28,1.82-3.3,3.07-6.05,3.74l8.54,13.78h-8.02ZM27.78,70.14h5.57c1.7,0,2.99-.44,3.89-1.32.9-.88,1.34-2.07,1.34-3.58s-.45-2.7-1.34-3.58c-.9-.88-2.19-1.32-3.89-1.32h-5.57v9.79Z"/>
        <path class="cls-4" d="M67.66,62.89c1.47.8,2.66,1.9,3.55,3.31v-4.13h6.72v26.59h-6.72v-4.46c-.93,1.5-2.12,2.69-3.58,3.55-1.46.86-3.13,1.3-5.02,1.3-2.27,0-4.34-.58-6.22-1.75-1.87-1.17-3.36-2.79-4.46-4.87-1.1-2.08-1.66-4.45-1.66-7.1s.55-5.02,1.66-7.08c1.1-2.06,2.59-3.67,4.46-4.82s3.94-1.73,6.22-1.73c1.89,0,3.57.4,5.04,1.2ZM60.77,68.46c-1.07.61-1.94,1.5-2.62,2.66-.67,1.17-1.01,2.57-1.01,4.2s.34,3.05,1.01,4.25c.67,1.2,1.54,2.1,2.62,2.71s2.2.91,3.38.91,2.36-.3,3.43-.91c1.07-.61,1.94-1.5,2.62-2.69.67-1.18,1.01-2.59,1.01-4.22s-.34-3.04-1.01-4.22c-.67-1.18-1.54-2.08-2.62-2.69-1.07-.61-2.22-.91-3.43-.91s-2.31.3-3.38.91Z"/>
        <path class="cls-4" d="M102.13,64.02c1.95,1.55,2.99,3.66,3.12,6.31h-6.91c-.19-2.24-1.57-3.36-4.13-3.36-1.28,0-2.27.26-2.98.77-.7.51-1.06,1.18-1.06,2.02,0,.7.26,1.26.77,1.68.51.42,1.14.74,1.9.98.75.24,1.83.52,3.24.84,1.95.42,3.56.86,4.82,1.32,1.26.46,2.34,1.2,3.24,2.21.9,1.01,1.34,2.39,1.34,4.15,0,1.6-.46,3.01-1.39,4.22-.93,1.22-2.21,2.17-3.84,2.86-1.63.69-3.47,1.03-5.52,1.03-3.2,0-5.81-.74-7.82-2.23-2.02-1.49-3.12-3.62-3.31-6.41h6.91c.13,1.09.56,1.92,1.3,2.5.74.58,1.73.86,2.98.86s2.26-.28,3.02-.84c.77-.56,1.15-1.27,1.15-2.14,0-.7-.26-1.27-.77-1.7-.51-.43-1.15-.77-1.92-1.01-.77-.24-1.87-.52-3.31-.84-1.95-.42-3.54-.85-4.78-1.3-1.23-.45-2.3-1.16-3.19-2.14-.9-.98-1.34-2.3-1.34-3.96,0-1.47.43-2.83,1.3-4.08s2.13-2.24,3.79-2.98c1.66-.74,3.63-1.1,5.9-1.1,3.04,0,5.54.78,7.49,2.33Z"/>
        <path class="cls-4" d="M131.57,63.01c1.55.88,2.78,2.18,3.67,3.89.9,1.71,1.34,3.75,1.34,6.12v15.65h-6.72v-14.69c0-2.08-.53-3.67-1.58-4.78-1.06-1.1-2.5-1.66-4.32-1.66s-3.27.55-4.34,1.66-1.61,2.7-1.61,4.78v14.69h-6.77v-35.52h6.77v12.91c.83-1.41,1.96-2.49,3.38-3.24,1.42-.75,3.05-1.13,4.87-1.13,1.98,0,3.75.44,5.3,1.32Z"/>
        <path class="cls-4" d="M144.03,52.38c.8-.8,1.76-1.2,2.88-1.2s2.13.4,2.93,1.2c.8.8,1.2,1.78,1.2,2.93s-.4,2.13-1.2,2.93c-.8.8-1.78,1.2-2.93,1.2s-2.08-.4-2.88-1.2c-.8-.8-1.2-1.78-1.2-2.93s.4-2.13,1.2-2.93ZM150.32,62.07v26.59h-6.77v-26.59h6.77Z"/>
        <path class="cls-4" d="M173.02,62.89c1.47.8,2.66,1.9,3.55,3.31v-13.06h6.72v35.52h-6.72v-4.46c-.93,1.5-2.12,2.69-3.58,3.55-1.46.86-3.13,1.3-5.02,1.3-2.27,0-4.34-.58-6.22-1.75-1.87-1.17-3.36-2.79-4.46-4.87-1.1-2.08-1.66-4.45-1.66-7.1s.55-5.02,1.66-7.08c1.1-2.06,2.59-3.67,4.46-4.82s3.94-1.73,6.22-1.73c1.89,0,3.57.4,5.04,1.2ZM166.13,68.46c-1.07.61-1.94,1.5-2.62,2.66-.67,1.17-1.01,2.57-1.01,4.2s.34,3.05,1.01,4.25c.67,1.2,1.54,2.1,2.62,2.71s2.2.91,3.38.91,2.36-.3,3.43-.91c1.07-.61,1.94-1.5,2.62-2.69.67-1.18,1.01-2.59,1.01-4.22s-.34-3.04-1.01-4.22c-.67-1.18-1.54-2.08-2.62-2.69-1.07-.61-2.22-.91-3.43-.91s-2.31.3-3.38.91Z"/>
      </g>
      <path class="cls-1" d="M190.3,88.37v-6c21.94,0,39.79-17.85,39.79-39.79h6c0,25.25-20.54,45.79-45.79,45.79Z"/>
      <path class="cls-3" d="M189.63,72.58v-6c13.24,0,24-10.77,24-24h6c0,16.54-13.46,30-30,30Z"/>
      <path class="cls-2" d="M189.63,57.83v-5.51c5.38,0,9.75-4.36,9.75-9.75h5.51c.14,0,.25.12.25.25-.13,8.35-6.9,15.12-15.25,15.25-.14,0-.25-.11-.25-.25Z"/>
      <rect class="cls-1" x="12.54" y="33.07" width="17.29" height="17.29" rx="2" ry="2"/>
      <rect class="cls-3" x="13.48" y="15.23" width="12.3" height="12.3" rx="2" ry="2"/>
      <rect class="cls-2" x="0" y="10.73" width="8.99" height="8.99" rx="2" ry="2"/>
      <rect class="cls-3" x="1.63" y="24.66" width="5.73" height="5.73" rx="2" ry="2"/>
    </g>
  </g>
</svg>